<svg width="54" height="58" viewBox="0 0 54 58" fill="none" xmlns="http://www.w3.org/2000/svg">
<path d="M39.5362 24.7628L39.5204 21.9071L42.9705 23.2297L39.5362 24.7628Z" fill="#3F3F3F"/>
<path d="M33.1444 27.7906L16.7505 27.7176L16.7016 18.8906L32.9562 18.9629" fill="#F4AA41"/>
<path d="M39.3606 25.062L33.8505 27.244L33.8072 19.5199L39.3423 21.7514" fill="#A57939"/>
<path d="M11.481 27.6946L4.94914 27.6652L4.90025 18.8381L11.376 18.8669" fill="#EA5A47"/>
<path d="M17.8109 27.7223L11.1228 27.6926L11.0739 18.8655L17.7055 18.895" fill="#9B9B9A"/>
<path d="M16.9709 8.88C17.5309 8.88 17.9549 8.968 18.2429 9.144C18.5309 9.312 18.6749 9.564 18.6749 9.9V15H17.4749V9.864H16.2029C15.8509 9.864 15.6029 9.9 15.4589 9.972C15.3149 10.044 15.2269 10.176 15.1949 10.368V15H13.9949V9.864H12.7229C12.3309 9.864 12.0629 9.912 11.9189 10.008C11.7749 10.104 11.7029 10.288 11.7029 10.56V15H10.5029V9H11.0549L11.3789 9.6C11.6669 9.352 11.9789 9.172 12.3149 9.06C12.6589 8.94 13.0509 8.88 13.4909 8.88C14.3149 8.88 14.8429 9.064 15.0749 9.432C15.5949 9.064 16.2269 8.88 16.9709 8.88Z" fill="#EA5A47"/>
<path d="M22.2203 8.904V15H21.0203V9.084L22.2203 8.904ZM21.6323 7.956C21.3363 7.956 21.1363 7.908 21.0323 7.812C20.9363 7.708 20.8883 7.516 20.8883 7.236C20.8883 6.948 20.9403 6.752 21.0443 6.648C21.1483 6.544 21.3443 6.492 21.6323 6.492C21.9123 6.492 22.1003 6.544 22.1963 6.648C22.3003 6.752 22.3523 6.948 22.3523 7.236C22.3523 7.516 22.3043 7.708 22.2083 7.812C22.1123 7.908 21.9203 7.956 21.6323 7.956Z" fill="#9B9B9A"/>
<path d="M24.6235 9H25.1755L25.4995 9.6C25.8035 9.352 26.1355 9.172 26.4955 9.06C26.8555 8.94 27.2675 8.88 27.7315 8.88C28.2915 8.88 28.7155 8.968 29.0035 9.144C29.2915 9.312 29.4355 9.564 29.4355 9.9V15H28.2355V9.864H26.8435C26.4515 9.864 26.1835 9.912 26.0395 10.008C25.8955 10.104 25.8235 10.288 25.8235 10.56V15H24.6235V9Z" fill="#F4AA41"/>
<path d="M32.9776 8.904V15H31.7776V9.084L32.9776 8.904ZM32.3896 7.956C32.0936 7.956 31.8936 7.908 31.7896 7.812C31.6936 7.708 31.6456 7.516 31.6456 7.236C31.6456 6.948 31.6976 6.752 31.8016 6.648C31.9056 6.544 32.1016 6.492 32.3896 6.492C32.6696 6.492 32.8576 6.544 32.9536 6.648C33.0576 6.752 33.1096 6.948 33.1096 7.236C33.1096 7.516 33.0616 7.708 32.9656 7.812C32.8696 7.908 32.6776 7.956 32.3896 7.956Z" fill="#A57939"/>
<path d="M10.7029 39.718H9.50291V32.218H12.4429C12.9789 32.218 13.3949 32.298 13.6909 32.458C13.9949 32.618 14.2109 32.882 14.3389 33.25C14.4749 33.61 14.5429 34.11 14.5429 34.75C14.5429 35.646 14.3949 36.286 14.0989 36.67C13.8029 37.054 13.3109 37.246 12.6229 37.246H10.7029V39.718ZM12.4549 36.298C12.7669 36.298 12.9829 36.262 13.1029 36.19C13.2229 36.118 13.2829 35.986 13.2829 35.794V33.718C13.2829 33.526 13.2229 33.394 13.1029 33.322C12.9829 33.25 12.7669 33.214 12.4549 33.214H10.7029V36.298H12.4549ZM17.8582 33.598C18.4102 33.598 18.8462 33.654 19.1662 33.766C19.4862 33.87 19.7142 34.046 19.8502 34.294C19.9942 34.534 20.0662 34.862 20.0662 35.278V39.718H19.5142L19.1902 39.118C18.9022 39.366 18.5822 39.55 18.2302 39.67C17.8862 39.782 17.4902 39.838 17.0422 39.838C16.3782 39.838 15.9062 39.702 15.6262 39.43C15.3462 39.15 15.2062 38.686 15.2062 38.038C15.2062 37.454 15.2862 37.034 15.4462 36.778C15.6062 36.522 15.9182 36.35 16.3822 36.262C16.8542 36.174 17.6222 36.13 18.6862 36.13H18.8662V34.678C18.5702 34.59 18.1662 34.546 17.6542 34.546C17.0142 34.546 16.3382 34.642 15.6262 34.834L15.4702 33.958C15.7662 33.854 16.1342 33.77 16.5742 33.706C17.0142 33.634 17.4422 33.598 17.8582 33.598ZM17.9062 38.914C18.2822 38.914 18.5342 38.866 18.6622 38.77C18.7982 38.674 18.8662 38.49 18.8662 38.218V36.91H17.2702C16.8942 36.91 16.6382 36.958 16.5022 37.054C16.3662 37.15 16.2982 37.334 16.2982 37.606V38.914H17.9062ZM23.1253 33.622V39.718H21.9253V33.802L23.1253 33.622ZM22.5373 32.674C22.2413 32.674 22.0413 32.626 21.9373 32.53C21.8413 32.426 21.7933 32.234 21.7933 31.954C21.7933 31.666 21.8453 31.47 21.9493 31.366C22.0533 31.262 22.2493 31.21 22.5373 31.21C22.8173 31.21 23.0053 31.262 23.1013 31.366C23.2053 31.47 23.2573 31.666 23.2573 31.954C23.2573 32.234 23.2093 32.426 23.1133 32.53C23.0173 32.626 22.8253 32.674 22.5373 32.674ZM25.0485 33.718H25.6005L25.9245 34.318C26.2285 34.07 26.5605 33.89 26.9205 33.778C27.2805 33.658 27.6925 33.598 28.1565 33.598C28.7165 33.598 29.1405 33.686 29.4285 33.862C29.7165 34.03 29.8605 34.282 29.8605 34.618V39.718H28.6605V34.582H27.2685C26.8765 34.582 26.6085 34.63 26.4645 34.726C26.3205 34.822 26.2485 35.006 26.2485 35.278V39.718H25.0485V33.718ZM33.2826 34.546V38.83C33.5706 38.862 33.8546 38.882 34.1346 38.89L34.0626 39.706C33.6146 39.794 33.2506 39.838 32.9706 39.838C32.6666 39.838 32.4426 39.766 32.2986 39.622C32.1546 39.47 32.0826 39.242 32.0826 38.938V34.546H31.2426V33.718H32.0826V32.434L33.2826 32.134V33.718H34.3506V34.546H33.2826Z" fill="#3F3F3F"/>
</svg>
